<svg xmlns="http://www.w3.org/2000/svg" xmlns:xlink="http://www.w3.org/1999/xlink" version="1.1" width="1000" height="1000" viewBox="0 0 1000 1000" xml:space="preserve">
<desc>Created with Fabric.js 3.5.0</desc>
<defs>
</defs>
<rect x="0" y="0" width="100%" height="100%" fill="#ffffff"/>
<g transform="matrix(0.601 0 0 0.601 500.032 500.0305)" id="785978">
<path style="stroke: none; stroke-width: 1; stroke-dasharray: none; stroke-linecap: butt; stroke-dashoffset: 0; stroke-linejoin: miter; stroke-miterlimit: 4; is-custom-font: none; font-file-url: none; fill: rgb(120,120,120); fill-rule: nonzero; opacity: 1;" vector-effect="non-scaling-stroke" transform=" translate(-896, -825.5)" d="M 1201 1004 l 306 -297 l -422 -62 l -189 -382 l -189 382 l -422 62 l 306 297 l -73 421 l 378 -199 l 377 199 z m 527 -357 q 0 22 -26 48 l -363 354 l 86 500 q 1 7 1 20 q 0 50 -41 50 q -19 0 -40 -12 l -449 -236 l -449 236 q -22 12 -40 12 q -21 0 -31.5 -14.5 t -10.5 -35.5 q 0 -6 2 -20 l 86 -500 l -364 -354 q -25 -27 -25 -48 q 0 -37 56 -46 l 502 -73 l 225 -455 q 19 -41 49 -41 t 49 41 l 225 455 l 502 73 q 56 9 56 46 z" stroke-linecap="round"/>
</g>
</svg>